# This file uses centimeters as units for non-parametric coordinates.

mtllib fenceend.mtl
g default
v 21.432625 3.467291 54.655109
v 21.863771 3.467291 54.437248
v 21.432625 4.467291 54.655109
v 21.863771 4.467291 54.437248
v 18.389414 4.467291 49.015427
v 18.820560 4.467291 48.660610
v 18.389414 3.467291 49.015427
v 18.820560 3.467291 48.660610
v 20.769762 4.467291 50.423809
v 20.338615 4.467291 50.641670
v 20.338615 3.467291 50.641670
v 20.769762 3.467291 50.423809
v 21.568712 4.467291 52.004929
v 21.137564 4.467291 52.222790
v 21.137564 3.467291 52.222790
v 21.568712 3.467291 52.004929
v 18.375521 3.467291 49.008553
v 18.804436 3.467291 49.230782
v 18.375521 4.467291 49.008553
v 18.804436 4.467291 49.230782
v 22.966301 4.467291 40.147942
v 23.395216 4.467291 40.370171
v 22.966301 3.467291 40.147942
v 23.395216 3.467291 40.370171
vt 0.927854 0.521393
vt 0.981835 0.674912
vt 0.921339 0.604102
vt 0.904987 0.640909
vt 0.356922 0.496733
vt 0.351161 0.542970
vt 0.273619 0.486178
vt 0.267804 0.532668
vt 0.329071 0.623993
vt 0.381637 0.416382
vt 0.561280 0.601061
vt 0.562418 0.560693
vt 0.583029 0.478716
vt 0.542699 0.682549
vt 0.702510 0.625638
vt 0.714260 0.587759
vt 0.725446 0.504697
vt 0.692447 0.709421
vt 0.899088 0.724501
vt 0.998192 0.637822
vt 0.215230 0.000000
vt 0.255321 0.005818
vt 0.243276 0.088810
vt 0.203186 0.082992
vt 0.123082 0.917008
vt 0.082992 0.911190
vt 0.111038 1.000000
vt 0.070948 0.994182
vt 0.326268 0.100854
vt 0.206074 0.929052
vt 0.000000 0.899145
vt 0.120194 0.070948
vn 0.450998 0.000000 0.892525
vn 0.450998 0.000000 0.892525
vn 0.450998 0.000000 0.892525
vn 0.450998 0.000000 0.892525
vn 0.000000 1.000000 0.000000
vn 0.000000 1.000000 0.000000
vn 0.000000 1.000000 -0.000000
vn 0.000000 1.000000 -0.000000
vn -0.635445 0.000000 -0.772146
vn -0.635445 0.000000 -0.772146
vn -0.635445 0.000000 -0.772146
vn -0.635445 0.000000 -0.772146
vn 0.992723 0.000000 -0.120425
vn 0.964798 0.000000 -0.262991
vn 0.964798 0.000000 -0.262991
vn 0.992723 0.000000 -0.120425
vn -0.964798 0.000000 0.262991
vn -0.992722 0.000000 0.120426
vn -0.992722 0.000000 0.120426
vn -0.964798 0.000000 0.262991
vn 0.000000 1.000000 -0.000000
vn 0.000000 1.000000 -0.000000
vn 0.000000 1.000000 0.000000
vn 0.000000 1.000000 0.000000
vn -0.640628 0.000000 0.767851
vn -0.759376 0.000000 0.650652
vn -0.759376 0.000000 0.650652
vn -0.640628 0.000000 0.767851
vn 0.772609 0.000000 -0.634882
vn 0.772609 0.000000 -0.634882
vn 0.670837 0.000000 -0.741605
vn 0.670837 0.000000 -0.741605
vn -0.460037 0.000000 0.887900
vn -0.460037 0.000000 0.887900
vn -0.460037 0.000000 0.887900
vn -0.460037 0.000000 0.887900
vn 0.000000 1.000000 0.000000
vn 0.000000 1.000000 0.000000
vn 0.000000 1.000000 0.000000
vn 0.000000 1.000000 0.000000
vn 0.460037 0.000000 -0.887900
vn 0.460037 0.000000 -0.887900
vn 0.460037 0.000000 -0.887900
vn 0.460037 0.000000 -0.887900
vn 0.887902 0.000000 0.460032
vn 0.887902 0.000000 0.460032
vn 0.887902 0.000000 0.460032
vn 0.887902 0.000000 0.460032
vn -0.887902 0.000000 -0.460032
vn -0.887902 0.000000 -0.460032
vn -0.887902 0.000000 -0.460032
vn -0.887902 0.000000 -0.460032
s off
g pCube21
usemtl initialShadingGroup
f 1/20/1 2/2/2 4/4/3 3/3/4
s 1
f 3/3/5 4/4/6 13/15/7 14/16/8
s off
f 5/5/9 6/6/10 8/8/11 7/7/12
s 2
f 2/19/13 16/18/14 13/15/15 4/4/16
s 3
f 15/17/17 1/1/18 3/3/19 14/16/20
s 1
f 10/12/21 9/11/22 6/6/23 5/5/24
s 3
f 7/10/25 11/13/26 10/12/27 5/5/28
s 2
f 9/11/29 12/14/30 8/9/31 6/6/32
s 1
f 14/16/8 13/15/7 9/11/22 10/12/21
s 3
f 11/13/26 15/17/17 14/16/20 10/12/27
s 2
f 13/15/15 16/18/14 12/14/30 9/11/29
s off
f 17/21/33 18/22/34 20/23/35 19/24/36
f 19/24/37 20/23/38 22/25/39 21/26/40
f 21/26/41 22/25/42 24/27/43 23/28/44
f 18/29/45 24/30/46 22/25/47 20/23/48
f 23/31/49 17/32/50 19/24/51 21/26/52
