# This file uses centimeters as units for non-parametric coordinates.

mtllib gold_ring.mtl
g default
v -45.803098 8.032301 47.113913
v -46.232375 7.176416 46.857897
v -46.446645 6.331286 47.329281
v -46.320392 5.991976 48.251935
v -45.927574 6.357248 49.085379
v -45.498298 7.213133 49.341394
v -45.284027 8.058263 48.870010
v -45.410280 8.397574 47.947357
v -46.013143 8.285337 46.988786
v -46.524894 7.265015 46.683584
v -46.780331 6.257514 47.245533
v -46.629822 5.853014 48.345451
v -46.161533 6.288465 49.339021
v -45.649782 7.308786 49.644223
v -45.394345 8.316287 49.082274
v -45.544854 8.720788 47.982356
v -45.779183 8.354120 46.735145
v -46.373409 7.169362 46.380756
v -46.670013 5.999491 47.033269
v -46.495248 5.529800 48.310451
v -45.951489 6.035429 49.464147
v -45.357263 7.220187 49.818536
v -45.060660 8.390059 49.166023
v -45.235425 8.859749 47.888840
vt 0.174252 0.708488
vt 0.161697 0.532123
vt 0.242868 0.375045
vt 0.393991 0.283261
vt 0.570802 0.283654
vt 0.721515 0.376109
vt 0.801987 0.533547
vt 0.788649 0.709855
vt 0.685406 0.853393
vt 0.115184 0.729721
vt 0.100217 0.519471
vt 0.196983 0.332214
vt 0.377141 0.222796
vt 0.587922 0.223265
vt 0.767591 0.333483
vt 0.863523 0.521169
vt 0.847622 0.731350
vt 0.724543 0.902466
vt 0.056116 0.750954
vt 0.038737 0.506820
vt 0.151098 0.289384
vt 0.360290 0.162332
vt 0.605041 0.162877
vt 0.813666 0.290858
vt 0.925059 0.508791
vt 0.906594 0.752845
vt 0.763681 0.951538
vn -0.511946 -0.000181 0.859018
vn -0.511946 -0.000181 0.859018
vn -0.511946 -0.000181 0.859018
vn -0.511946 -0.000181 0.859018
vn -0.314401 0.521968 0.792907
vn -0.314401 0.521968 0.792907
vn -0.314401 0.521968 0.792907
vn -0.314401 0.521968 0.792907
vn -0.287382 0.885548 0.364989
vn -0.287382 0.885548 0.364989
vn -0.287382 0.885548 0.364989
vn -0.287382 0.885548 0.364989
vn -0.446718 0.877578 -0.174068
vn -0.446718 0.877578 -0.174068
vn -0.446718 0.877578 -0.174068
vn -0.446718 0.877578 -0.174068
vn -0.699071 0.502727 -0.508493
vn -0.699071 0.502727 -0.508493
vn -0.699071 0.502727 -0.508493
vn -0.699071 0.502727 -0.508493
vn -0.896616 -0.019422 -0.442382
vn -0.896616 -0.019422 -0.442382
vn -0.896616 -0.019422 -0.442382
vn -0.896616 -0.019422 -0.442382
vn -0.923635 -0.383001 -0.014464
vn -0.923635 -0.383001 -0.014464
vn -0.923635 -0.383001 -0.014464
vn -0.923635 -0.383001 -0.014464
vn -0.764299 -0.375032 0.524594
vn -0.764299 -0.375032 0.524594
vn -0.764299 -0.375032 0.524594
vn -0.764299 -0.375032 0.524594
vn -0.699071 0.502727 -0.508493
vn -0.699071 0.502727 -0.508493
vn -0.699071 0.502727 -0.508493
vn -0.699071 0.502727 -0.508493
vn -0.896616 -0.019422 -0.442382
vn -0.896616 -0.019422 -0.442382
vn -0.896616 -0.019422 -0.442382
vn -0.896616 -0.019422 -0.442382
vn -0.923635 -0.383001 -0.014464
vn -0.923635 -0.383001 -0.014464
vn -0.923635 -0.383001 -0.014464
vn -0.923635 -0.383001 -0.014464
vn -0.764299 -0.375032 0.524594
vn -0.764299 -0.375032 0.524594
vn -0.764299 -0.375032 0.524593
vn -0.764299 -0.375032 0.524593
vn -0.511946 -0.000182 0.859018
vn -0.511946 -0.000182 0.859018
vn -0.511946 -0.000182 0.859018
vn -0.511946 -0.000182 0.859018
vn -0.314401 0.521968 0.792907
vn -0.314401 0.521968 0.792907
vn -0.314401 0.521968 0.792907
vn -0.314401 0.521968 0.792907
vn -0.287382 0.885548 0.364989
vn -0.287382 0.885548 0.364989
vn -0.287382 0.885548 0.364989
vn -0.287382 0.885548 0.364989
vn -0.446718 0.877578 -0.174069
vn -0.446718 0.877578 -0.174069
vn -0.446718 0.877578 -0.174069
vn -0.446718 0.877578 -0.174069
s off
g pTorus12
usemtl initialShadingGroup
f 2/2/1 1/1/2 9/10/3 10/11/4
f 3/3/5 2/2/6 10/11/7 11/12/8
f 4/4/9 3/3/10 11/12/11 12/13/12
f 5/5/13 4/4/14 12/13/15 13/14/16
f 6/6/17 5/5/18 13/14/19 14/15/20
f 7/7/21 6/6/22 14/15/23 15/16/24
f 8/8/25 7/7/26 15/16/27 16/17/28
f 1/9/29 8/8/30 16/17/31 9/18/32
f 10/11/33 9/10/34 17/19/35 18/20/36
f 11/12/37 10/11/38 18/20/39 19/21/40
f 12/13/41 11/12/42 19/21/43 20/22/44
f 13/14/45 12/13/46 20/22/47 21/23/48
f 14/15/49 13/14/50 21/23/51 22/24/52
f 15/16/53 14/15/54 22/24/55 23/25/56
f 16/17/57 15/16/58 23/25/59 24/26/60
f 9/18/61 16/17/62 24/26/63 17/27/64
