# This file uses centimeters as units for non-parametric coordinates.

mtllib gold_details.mtl
g default
v -28.141872 3.837191 4.124705
v -27.543140 3.837191 4.124705
v -28.141872 4.027012 4.124705
v -27.543140 4.027012 4.124705
v -28.141872 4.027012 -0.661622
v -27.543140 4.027012 -0.661622
v -28.141872 3.837191 -0.661622
v -27.543140 3.837191 -0.661622
v -25.857063 3.787622 1.705863
v -25.848780 3.787284 1.107190
v -25.858335 3.977439 1.705737
v -25.850054 3.977100 1.107065
v -30.066862 3.949135 1.647538
v -30.058580 3.948796 1.048866
v -30.065586 3.759319 1.647664
v -30.057306 3.758980 1.048991
v -28.962654 3.956475 1.683459
v -28.970936 3.956814 2.282132
v -28.969662 3.766998 2.282257
v -28.961378 3.766659 1.683584
v -27.870968 3.963949 1.897874
v -27.879251 3.964287 2.496547
v -27.877975 3.774471 2.496672
v -27.869694 3.774132 1.898000
v -26.793911 3.971060 1.713450
v -26.802191 3.971399 2.312123
v -26.800917 3.781583 2.312248
v -26.792635 3.781244 1.713575
v -24.540474 3.796472 0.462347
v -24.532192 3.796133 -0.136326
v -24.533470 3.985949 -0.136451
v -24.541748 3.986288 0.462222
v -31.383446 3.940292 0.367609
v -31.375164 3.939953 -0.231064
v -31.373892 3.750137 -0.230938
v -31.382174 3.750476 0.367734
v -25.568445 3.789563 0.282050
v -25.560163 3.789224 -0.316622
v -25.569719 3.979380 0.281925
v -25.561440 3.979041 -0.316748
v -30.355480 3.947194 0.215744
v -30.347198 3.946855 -0.382929
v -30.354206 3.757378 0.215869
v -30.345924 3.757039 -0.382804
v -28.962656 3.956475 0.103843
v -28.970936 3.956814 0.702516
v -28.969662 3.766998 0.702641
v -28.961380 3.766659 0.103968
v -27.870970 3.963948 0.318258
v -27.879251 3.964287 0.916931
v -27.877975 3.774471 0.917056
v -27.869696 3.774132 0.318383
v -26.793911 3.971060 0.133834
v -26.802193 3.971399 0.732507
v -26.800919 3.781583 0.732632
v -26.792637 3.781244 0.133959
vt 0.314431 0.020317
vt 0.408526 0.005960
vt 0.336628 0.022204
vt 0.406639 0.028156
vt 0.289044 0.581881
vt 0.359055 0.587833
vt 0.287157 0.604077
vt 0.357168 0.610030
vt 0.381252 0.589721
vt 0.266848 0.579994
vt 0.428835 0.030043
vt 0.338515 0.000008
vt 0.064855 0.039474
vt 0.123041 -0.000000
vt 0.135613 0.018470
vt 0.077431 0.057907
vt 0.038303 0.265152
vt 0.097652 0.228551
vt 0.087243 0.364826
vt 0.022295 0.389105
vt 0.195183 0.956183
vt 0.261715 0.978869
vt 0.254436 1.000000
vt 0.187897 0.977266
vt 0.119777 0.231390
vt 0.109602 0.364760
vt 0.000000 0.388342
vt 0.016196 0.261717
vt 0.054641 0.630197
vt 0.124044 0.635327
vt 0.170510 0.782408
vt 0.103298 0.763952
vt 0.082752 0.772509
vt 0.033229 0.636444
vt 0.145678 0.629818
vt 0.191399 0.774281
vt 0.027537 0.509737
vt 0.098402 0.500092
vt 0.005452 0.512702
vt 0.120521 0.497122
vt 0.157536 0.022267
vt 0.055417 0.053876
vt 0.281970 0.969698
vt 0.174885 0.965664
vt 0.214756 0.009251
vt 0.284206 0.000006
vt 0.287171 0.022129
vt 0.217776 0.031335
vt 0.251058 0.173573
vt 0.181483 0.178372
vt 0.165381 0.594195
vt 0.232428 0.614623
vt 0.225869 0.635964
vt 0.158791 0.615484
vt 0.308878 0.027152
vt 0.272898 0.177841
vt 0.159602 0.173811
vt 0.196029 0.026056
vt 0.159051 0.424209
vt 0.226837 0.440901
vt 0.143072 0.594936
vt 0.136760 0.424479
vt 0.249162 0.440894
vt 0.254707 0.614043
vt 0.159497 0.299034
vt 0.230178 0.305387
vt 0.137379 0.297039
vt 0.252446 0.307405
vn 0.000000 0.000000 1.000000
vn 0.000000 0.000000 1.000000
vn 0.000000 0.000000 1.000000
vn 0.000000 0.000000 1.000000
vn 0.000000 1.000000 0.000000
vn 0.000000 1.000000 0.000000
vn 0.000000 1.000000 0.000000
vn 0.000000 1.000000 0.000000
vn 0.000000 0.000000 -1.000000
vn 0.000000 0.000000 -1.000000
vn 0.000000 0.000000 -1.000000
vn 0.000000 0.000000 -1.000000
vn 1.000000 0.000000 0.000000
vn 1.000000 0.000000 0.000000
vn 1.000000 0.000000 0.000000
vn 1.000000 0.000000 0.000000
vn -1.000000 0.000000 0.000000
vn -1.000000 0.000000 0.000000
vn -1.000000 0.000000 0.000000
vn -1.000000 0.000000 0.000000
vn 0.999882 0.006729 0.013825
vn 0.999882 0.006729 0.013825
vn 0.999882 0.006729 0.013825
vn 0.999882 0.006729 0.013825
vn -0.007003 0.999975 -0.000663
vn -0.007229 0.999974 -0.000666
vn -0.006778 0.999977 -0.000659
vn -0.006751 0.999977 -0.000658
vn -0.999882 -0.006705 -0.013828
vn -0.999882 -0.006705 -0.013828
vn -0.999882 -0.006705 -0.013828
vn -0.999882 -0.006705 -0.013828
vn -0.633291 -0.004760 -0.773899
vn -0.364382 -0.003063 -0.931245
vn -0.364391 -0.003063 -0.931241
vn -0.633315 -0.004760 -0.773879
vn 0.364381 0.003055 0.931245
vn 0.633291 0.004757 0.773899
vn 0.633316 0.004757 0.773879
vn 0.364393 0.003055 0.931240
vn -0.006682 0.999977 -0.000659
vn -0.006662 0.999978 -0.000658
vn -0.006232 0.999980 -0.000653
vn -0.006452 0.999979 -0.000656
vn -0.621588 -0.003660 0.783336
vn -0.361791 -0.001814 0.932257
vn -0.361798 -0.001814 0.932255
vn -0.621620 -0.003660 0.783310
vn 0.361799 0.001815 -0.932255
vn 0.361790 0.001814 -0.932258
vn 0.621588 0.003660 -0.783336
vn 0.621620 0.003661 -0.783310
vn -0.006716 0.999977 -0.000658
vn -0.006716 0.999977 -0.000658
vn -0.013831 0.000567 0.999904
vn -0.013832 0.000567 0.999904
vn 0.013831 -0.000566 -0.999904
vn 0.013832 -0.000566 -0.999904
vn -0.686617 -0.005082 -0.727001
vn -0.686618 -0.005082 -0.727001
vn -0.007352 0.999973 -0.000668
vn -0.007352 0.999973 -0.000668
vn 0.686617 0.005088 0.727001
vn 0.686617 0.005088 0.727001
vn -0.006084 0.999981 -0.000651
vn -0.006084 0.999981 -0.000651
vn 0.697034 0.004214 -0.717026
vn 0.697034 0.004214 -0.717026
vn -0.697033 -0.004214 0.717027
vn -0.697033 -0.004214 0.717027
vn 0.999882 0.006707 0.013826
vn 0.999882 0.006707 0.013826
vn 0.999882 0.006707 0.013826
vn 0.999882 0.006707 0.013826
vn -0.006716 0.999977 -0.000660
vn -0.006716 0.999977 -0.000660
vn -0.006716 0.999977 -0.000660
vn -0.006716 0.999977 -0.000659
vn -0.999882 -0.006721 -0.013828
vn -0.999882 -0.006721 -0.013828
vn -0.999882 -0.006721 -0.013828
vn -0.999882 -0.006721 -0.013828
vn -0.343347 -0.002929 -0.939204
vn -0.265096 -0.002417 -0.964219
vn -0.265097 -0.002417 -0.964219
vn -0.343347 -0.002929 -0.939204
vn 0.265096 0.002417 0.964219
vn 0.343347 0.002925 0.939204
vn 0.343347 0.002925 0.939204
vn 0.265097 0.002417 0.964219
vn -0.006716 0.999977 -0.000659
vn -0.006716 0.999977 -0.000659
vn -0.006716 0.999977 -0.000659
vn -0.006716 0.999977 -0.000659
vn -0.331664 -0.001606 0.943396
vn -0.272447 -0.001196 0.962170
vn -0.272447 -0.001196 0.962170
vn -0.331664 -0.001606 0.943396
vn 0.272447 0.001193 -0.962170
vn 0.272447 0.001193 -0.962170
vn 0.331664 0.001602 -0.943396
vn 0.331664 0.001602 -0.943396
vn -0.006716 0.999977 -0.000659
vn -0.006716 0.999977 -0.000659
vn -0.013830 0.000567 0.999904
vn -0.013832 0.000567 0.999904
vn 0.013831 -0.000565 -0.999904
vn 0.013832 -0.000565 -0.999904
s off
g pCube9
usemtl initialShadingGroup
f 1/12/1 2/2/2 4/4/3 3/3/4
f 3/3/5 4/4/6 6/6/7 5/5/8
f 5/5/9 6/6/10 8/8/11 7/7/12
f 2/11/13 8/9/14 6/6/15 4/4/16
f 7/10/17 1/1/18 3/3/19 5/5/20
f 29/13/21 30/14/22 31/15/23 32/16/24
s 1
f 11/17/25 12/18/26 25/19/27 26/20/28
s off
f 33/21/29 34/22/30 35/23/31 36/24/32
s 2
f 10/25/33 28/26/34 25/19/35 12/18/36
s 3
f 27/27/37 9/28/38 11/17/39 26/20/40
s 1
f 18/29/41 17/30/42 14/31/43 13/32/44
s 3
f 15/33/45 19/34/46 18/29/47 13/32/48
s 2
f 17/30/49 20/35/50 16/36/51 14/31/52
s 1
f 22/37/53 21/38/54 17/30/42 18/29/41
s 3
f 19/34/46 23/39/55 22/37/56 18/29/47
s 2
f 21/38/57 24/40/58 20/35/50 17/30/49
s 1
f 26/20/28 25/19/27 21/38/54 22/37/53
s 3
f 23/39/55 27/27/37 26/20/40 22/37/56
s 2
f 25/19/35 28/26/34 24/40/58 21/38/57
f 10/25/33 12/18/36 31/15/59 30/41/60
s 1
f 12/18/26 11/17/25 32/16/61 31/15/62
s 3
f 11/17/39 9/28/38 29/42/63 32/16/64
s 1
f 13/32/44 14/31/43 34/22/65 33/21/66
s 2
f 14/31/52 16/36/51 35/43/67 34/22/68
s 3
f 15/33/45 13/32/48 33/21/69 36/44/70
s off
f 37/45/71 38/46/72 40/47/73 39/48/74
s 7
f 39/48/75 40/47/76 53/49/77 54/50/78
s off
f 41/51/79 42/52/80 44/53/81 43/54/82
s 8
f 38/55/83 56/56/84 53/49/85 40/47/86
s 9
f 55/57/87 37/58/88 39/48/89 54/50/90
s 7
f 46/59/91 45/60/92 42/52/93 41/51/94
s 9
f 43/61/95 47/62/96 46/59/97 41/51/98
s 8
f 45/60/99 48/63/100 44/64/101 42/52/102
s 7
f 50/65/103 49/66/104 45/60/92 46/59/91
s 9
f 47/62/96 51/67/105 50/65/106 46/59/97
s 8
f 49/66/107 52/68/108 48/63/100 45/60/99
s 7
f 54/50/78 53/49/77 49/66/104 50/65/103
s 9
f 51/67/105 55/57/87 54/50/90 50/65/106
s 8
f 53/49/85 56/56/84 52/68/108 49/66/107
