# This file uses centimeters as units for non-parametric coordinates.

mtllib gold_edge.mtl
g default
v -19.910439 3.805530 5.667370
v -21.103480 3.805530 3.325896
v -22.961685 3.805530 1.467691
v -25.303159 3.805530 0.274651
v -27.898703 3.805530 -0.136442
v -30.494247 3.805530 0.274651
v -32.835721 3.805530 1.467692
v -34.693924 3.805530 3.325897
v -35.886965 3.805530 5.667371
v -36.298058 3.805530 8.262914
v -35.886965 3.805530 10.858457
v -34.693924 3.805530 13.199931
v -32.835720 3.805530 15.058135
v -30.494246 3.805530 16.251174
v -27.898703 3.805530 16.662268
v -25.303161 3.805530 16.251174
v -22.961688 3.805530 15.058134
v -21.103484 3.805530 13.199930
v -19.910444 3.805530 10.858457
v -19.499351 3.805530 8.262914
v -19.427590 4.313228 5.510483
v -20.692744 4.313228 3.027479
v -22.663268 4.313228 1.056955
v -25.146272 4.313228 -0.208198
v -27.898703 4.313228 -0.644139
v -30.651134 4.313228 -0.208197
v -33.134138 4.313228 1.056957
v -35.104660 4.313228 3.027480
v -36.369813 4.313228 5.510484
v -36.805755 4.313228 8.262914
v -36.369813 4.313228 11.015345
v -35.104660 4.313228 13.498348
v -33.134137 4.313228 15.468870
v -30.651134 4.313228 16.734023
v -27.898703 4.313228 17.169965
v -25.146274 4.313228 16.734023
v -22.663271 4.313228 15.468869
v -20.692749 4.313228 13.498347
v -19.427595 4.313228 11.015344
v -18.991653 4.313228 8.262914
v -18.944740 3.805530 5.353596
v -20.282008 3.805530 2.729061
v -22.364850 3.805530 0.646220
v -24.989385 3.805530 -0.691047
v -27.898703 3.805530 -1.151838
v -30.808022 3.805530 -0.691047
v -33.432555 3.805530 0.646221
v -35.515396 3.805530 2.729063
v -36.852662 3.805530 5.353597
v -37.313452 3.805530 8.262914
v -36.852662 3.805530 11.172232
v -35.515396 3.805530 13.796765
v -33.432554 3.805530 15.879606
v -30.808021 3.805530 17.216872
v -27.898704 3.805530 17.677662
v -24.989387 3.805530 17.216871
v -22.364854 3.805530 15.879605
v -20.282013 3.805530 13.796764
v -18.944746 3.805530 11.172231
v -18.483956 3.805530 8.262914
v -19.427590 3.297833 5.510483
v -20.692744 3.297833 3.027479
v -22.663268 3.297833 1.056955
v -25.146272 3.297833 -0.208198
v -27.898703 3.297833 -0.644139
v -30.651134 3.297833 -0.208197
v -33.134138 3.297833 1.056957
v -35.104660 3.297833 3.027480
v -36.369813 3.297833 5.510484
v -36.805755 3.297833 8.262914
v -36.369813 3.297833 11.015345
v -35.104660 3.297833 13.498348
v -33.134137 3.297833 15.468870
v -30.651134 3.297833 16.734023
v -27.898703 3.297833 17.169965
v -25.146274 3.297833 16.734023
v -22.663271 3.297833 15.468869
v -20.692749 3.297833 13.498347
v -19.427595 3.297833 11.015344
v -18.991653 3.297833 8.262914
vt 0.785513 0.632707
vt 0.831117 0.654430
vt 0.874983 0.679472
vt 0.916848 0.707610
vt 0.037953 0.774252
vt 0.074438 0.740446
vt 0.114017 0.709124
vt 0.155805 0.680742
vt 0.199581 0.655536
vt 0.245108 0.633652
vt 0.292136 0.615212
vt 0.340405 0.600319
vt 0.389646 0.589054
vt 0.439589 0.581479
vt 0.489957 0.577637
vt 0.540470 0.577548
vt 0.590851 0.581214
vt 0.640820 0.588614
vt 0.690101 0.599707
vt 0.738421 0.614432
vt 0.790808 0.620487
vt 0.837306 0.642638
vt 0.882031 0.668183
vt 0.924780 0.696990
vt 0.965107 0.729294
vt 0.065725 0.730380
vt 0.106143 0.698389
vt 0.148752 0.669446
vt 0.193386 0.643746
vt 0.239807 0.621435
vt 0.287758 0.602635
vt 0.336973 0.587451
vt 0.387181 0.575966
vt 0.438103 0.568244
vt 0.489458 0.564328
vt 0.540962 0.564240
vt 0.592331 0.567979
vt 0.643279 0.575525
vt 0.693526 0.586837
vt 0.742793 0.601852
vt 0.796090 0.608264
vt 0.843481 0.630842
vt 0.889062 0.656889
vt 0.932577 0.686356
vt 0.974736 0.719762
vt 0.057102 0.720329
vt 0.098270 0.687665
vt 0.141689 0.658159
vt 0.187182 0.631965
vt 0.234495 0.609225
vt 0.283368 0.590064
vt 0.333529 0.574588
vt 0.384702 0.562883
vt 0.436604 0.555014
vt 0.488946 0.551023
vt 0.541441 0.550933
vt 0.593797 0.554745
vt 0.645725 0.562437
vt 0.696937 0.573966
vt 0.747152 0.589270
vt 0.801358 0.596133
vt 0.849635 0.619137
vt 0.896063 0.645673
vt 0.940314 0.675630
vt 0.981862 0.708131
vt 0.048692 0.710272
vt 0.090474 0.676993
vt 0.134695 0.646936
vt 0.181040 0.620253
vt 0.229241 0.597088
vt 0.279030 0.577570
vt 0.330132 0.561807
vt 0.382264 0.549884
vt 0.435138 0.541870
vt 0.488462 0.537806
vt 0.541940 0.537717
vt 0.595277 0.541602
vt 0.648177 0.549440
vt 0.700349 0.561188
vt 0.751503 0.576781
vt 0.017391 0.756463
vt 0.009687 0.745474
vt 0.027646 0.765481
vt 0.955495 0.738655
vn -0.572061 0.707107 0.415627
vn -0.672498 0.707107 0.218507
vn -0.672498 0.707107 0.218507
vn -0.572061 0.707107 0.415627
vn -0.415627 0.707107 0.572061
vn -0.415627 0.707107 0.572061
vn -0.218508 0.707107 0.672498
vn -0.218508 0.707107 0.672498
vn 0.000000 0.707107 0.707107
vn 0.000000 0.707107 0.707107
vn 0.218508 0.707107 0.672498
vn 0.218508 0.707107 0.672498
vn 0.415627 0.707107 0.572061
vn 0.415627 0.707107 0.572061
vn 0.572061 0.707107 0.415627
vn 0.572061 0.707107 0.415627
vn 0.672499 0.707107 0.218508
vn 0.672499 0.707107 0.218508
vn 0.707107 0.707107 0.000000
vn 0.707107 0.707107 0.000000
vn 0.672498 0.707107 -0.218508
vn 0.672498 0.707107 -0.218508
vn 0.572061 0.707107 -0.415627
vn 0.572061 0.707107 -0.415627
vn 0.415627 0.707107 -0.572062
vn 0.415627 0.707107 -0.572062
vn 0.218508 0.707107 -0.672499
vn 0.218508 0.707107 -0.672499
vn -0.000000 0.707107 -0.707107
vn 0.000000 0.707107 -0.707107
vn -0.218508 0.707107 -0.672498
vn -0.218508 0.707107 -0.672498
vn -0.415627 0.707107 -0.572061
vn -0.415627 0.707107 -0.572061
vn -0.572061 0.707107 -0.415627
vn -0.572061 0.707107 -0.415627
vn -0.672498 0.707107 -0.218508
vn -0.672498 0.707107 -0.218508
vn -0.707107 0.707107 -0.000001
vn -0.707107 0.707107 -0.000001
vn 0.572061 0.707107 -0.415627
vn 0.672498 0.707107 -0.218507
vn 0.672498 0.707107 -0.218507
vn 0.572061 0.707107 -0.415627
vn 0.415627 0.707107 -0.572061
vn 0.415627 0.707107 -0.572061
vn 0.218508 0.707107 -0.672498
vn 0.218508 0.707107 -0.672498
vn -0.000000 0.707107 -0.707106
vn -0.000000 0.707107 -0.707106
vn -0.218508 0.707107 -0.672498
vn -0.218508 0.707107 -0.672498
vn -0.415627 0.707107 -0.572061
vn -0.415627 0.707107 -0.572061
vn -0.572062 0.707107 -0.415627
vn -0.572062 0.707107 -0.415627
vn -0.672498 0.707107 -0.218508
vn -0.672498 0.707107 -0.218508
vn -0.707107 0.707107 0.000000
vn -0.707107 0.707107 0.000000
vn -0.672499 0.707107 0.218508
vn -0.672499 0.707107 0.218508
vn -0.572061 0.707107 0.415627
vn -0.572061 0.707107 0.415627
vn -0.415627 0.707107 0.572061
vn -0.415627 0.707107 0.572061
vn -0.218508 0.707107 0.672499
vn -0.218508 0.707107 0.672498
vn 0.000000 0.707107 0.707107
vn -0.000000 0.707107 0.707107
vn 0.218508 0.707107 0.672499
vn 0.218508 0.707107 0.672499
vn 0.415627 0.707107 0.572061
vn 0.415627 0.707107 0.572061
vn 0.572061 0.707107 0.415627
vn 0.572061 0.707107 0.415627
vn 0.672499 0.707107 0.218508
vn 0.672499 0.707107 0.218508
vn 0.707107 0.707107 0.000001
vn 0.707107 0.707107 0.000001
vn 0.572061 -0.707107 -0.415627
vn 0.672498 -0.707107 -0.218507
vn 0.672498 -0.707107 -0.218507
vn 0.572061 -0.707107 -0.415627
vn 0.415627 -0.707107 -0.572061
vn 0.415627 -0.707107 -0.572061
vn 0.218508 -0.707107 -0.672498
vn 0.218508 -0.707107 -0.672498
vn -0.000000 -0.707107 -0.707106
vn -0.000000 -0.707107 -0.707106
vn -0.218508 -0.707107 -0.672498
vn -0.218508 -0.707107 -0.672498
vn -0.415627 -0.707107 -0.572061
vn -0.415627 -0.707107 -0.572061
vn -0.572061 -0.707107 -0.415627
vn -0.572061 -0.707107 -0.415627
vn -0.672498 -0.707107 -0.218508
vn -0.672498 -0.707107 -0.218508
vn -0.707107 -0.707107 0.000000
vn -0.707107 -0.707107 0.000000
vn -0.672499 -0.707107 0.218508
vn -0.672498 -0.707107 0.218508
vn -0.572062 -0.707107 0.415627
vn -0.572062 -0.707107 0.415627
vn -0.415627 -0.707107 0.572061
vn -0.415627 -0.707107 0.572062
vn -0.218508 -0.707107 0.672498
vn -0.218508 -0.707107 0.672498
vn -0.000000 -0.707107 0.707107
vn 0.000000 -0.707107 0.707107
vn 0.218508 -0.707107 0.672499
vn 0.218508 -0.707107 0.672499
vn 0.415627 -0.707107 0.572061
vn 0.415627 -0.707107 0.572061
vn 0.572061 -0.707107 0.415627
vn 0.572061 -0.707107 0.415627
vn 0.672499 -0.707107 0.218508
vn 0.672499 -0.707107 0.218508
vn 0.707107 -0.707107 0.000001
vn 0.707107 -0.707107 0.000001
s 1
g pTorus8
usemtl initialShadingGroup
f 2/2/1 1/1/2 21/21/3 22/22/4
f 3/3/5 2/2/1 22/22/4 23/23/6
f 4/4/7 3/3/5 23/23/6 24/24/8
f 5/84/9 4/4/7 24/24/8 25/25/10
f 6/6/11 5/5/9 25/83/10 26/26/12
f 7/7/13 6/6/11 26/26/12 27/27/14
f 8/8/15 7/7/13 27/27/14 28/28/16
f 9/9/17 8/8/15 28/28/16 29/29/18
f 10/10/19 9/9/17 29/29/18 30/30/20
f 11/11/21 10/10/19 30/30/20 31/31/22
f 12/12/23 11/11/21 31/31/22 32/32/24
f 13/13/25 12/12/23 32/32/24 33/33/26
f 14/14/27 13/13/25 33/33/26 34/34/28
f 15/15/29 14/14/27 34/34/28 35/35/30
f 16/16/31 15/15/29 35/35/30 36/36/32
f 17/17/33 16/16/31 36/36/32 37/37/34
f 18/18/35 17/17/33 37/37/34 38/38/36
f 19/19/37 18/18/35 38/38/36 39/39/38
f 20/20/39 19/19/37 39/39/38 40/40/40
f 1/1/2 20/20/39 40/40/40 21/21/3
s 2
f 22/22/41 21/21/42 41/41/43 42/42/44
f 23/23/45 22/22/41 42/42/44 43/43/46
f 24/24/47 23/23/45 43/43/46 44/44/48
f 25/25/49 24/24/47 44/44/48 45/45/50
f 26/26/51 25/83/49 45/81/50 46/46/52
f 27/27/53 26/26/51 46/46/52 47/47/54
f 28/28/55 27/27/53 47/47/54 48/48/56
f 29/29/57 28/28/55 48/48/56 49/49/58
f 30/30/59 29/29/57 49/49/58 50/50/60
f 31/31/61 30/30/59 50/50/60 51/51/62
f 32/32/63 31/31/61 51/51/62 52/52/64
f 33/33/65 32/32/63 52/52/64 53/53/66
f 34/34/67 33/33/65 53/53/66 54/54/68
f 35/35/69 34/34/67 54/54/68 55/55/70
f 36/36/71 35/35/69 55/55/70 56/56/72
f 37/37/73 36/36/71 56/56/72 57/57/74
f 38/38/75 37/37/73 57/57/74 58/58/76
f 39/39/77 38/38/75 58/58/76 59/59/78
f 40/40/79 39/39/77 59/59/78 60/60/80
f 21/21/42 40/40/79 60/60/80 41/41/43
s 3
f 42/42/81 41/41/82 61/61/83 62/62/84
f 43/43/85 42/42/81 62/62/84 63/63/86
f 44/44/87 43/43/85 63/63/86 64/64/88
f 45/45/89 44/44/87 64/64/88 65/65/90
f 46/46/91 45/81/89 65/82/90 66/66/92
f 47/47/93 46/46/91 66/66/92 67/67/94
f 48/48/95 47/47/93 67/67/94 68/68/96
f 49/49/97 48/48/95 68/68/96 69/69/98
f 50/50/99 49/49/97 69/69/98 70/70/100
f 51/51/101 50/50/99 70/70/100 71/71/102
f 52/52/103 51/51/101 71/71/102 72/72/104
f 53/53/105 52/52/103 72/72/104 73/73/106
f 54/54/107 53/53/105 73/73/106 74/74/108
f 55/55/109 54/54/107 74/74/108 75/75/110
f 56/56/111 55/55/109 75/75/110 76/76/112
f 57/57/113 56/56/111 76/76/112 77/77/114
f 58/58/115 57/57/113 77/77/114 78/78/116
f 59/59/117 58/58/115 78/78/116 79/79/118
f 60/60/119 59/59/117 79/79/118 80/80/120
f 41/41/82 60/60/119 80/80/120 61/61/83
