# This file uses centimeters as units for non-parametric coordinates.

mtllib hell_edge.mtl
g default
v 23.159272 4.682750 44.622908
v 17.001593 4.682750 40.380469
v 25.525824 4.682750 56.636278
v 23.791201 5.433931 44.216790
v 17.313639 5.433931 39.697173
v 26.251055 5.433931 56.832014
v 24.423141 4.682750 43.810671
v 17.625696 4.682750 39.013877
v 26.976296 4.682750 57.027739
v 23.791201 3.931568 44.216790
v 17.313639 3.931568 39.697173
v 26.251055 3.931568 56.832014
v 26.007594 5.433931 49.013399
v 25.352686 4.682750 49.271342
v 26.007594 3.931568 49.013399
v 26.662491 4.682750 48.755445
vt 0.145484 0.046597
vt 0.335127 0.361285
vt 0.294054 0.391960
vt 0.098749 0.067103
vt 0.470144 0.588571
vt 0.658100 0.897799
vt 0.620764 0.932697
vt 0.425545 0.609532
vt 0.253448 0.422358
vt 0.051241 0.087663
vt 0.381161 0.630584
vt 0.583154 0.968086
vt 0.207783 0.444357
vt 0.185583 0.015066
vt 0.534363 0.984934
vt 0.342265 0.660779
vt 0.509560 0.559078
vt 0.381901 0.340130
vt 0.706254 0.880654
vt 0.010803 0.119853
vn -0.412330 0.690246 0.594596
vn -0.412330 0.690246 0.594596
vn -0.412330 0.690246 0.594596
vn -0.412330 0.690246 0.594596
vn -0.711271 0.690570 0.131169
vn -0.735868 0.676824 0.020191
vn -0.735868 0.676824 0.020191
vn -0.706542 0.691912 0.148510
vn 0.415544 0.690454 -0.592111
vn 0.415544 0.690454 -0.592111
vn 0.415544 0.690454 -0.592111
vn 0.415544 0.690454 -0.592111
vn 0.707578 0.691188 -0.146945
vn 0.712124 0.689858 -0.130293
vn 0.735659 0.676873 -0.025478
vn 0.735659 0.676873 -0.025478
vn 0.415545 -0.690454 -0.592111
vn 0.415545 -0.690454 -0.592111
vn 0.415545 -0.690454 -0.592111
vn 0.415545 -0.690454 -0.592111
vn 0.707580 -0.691186 -0.146945
vn 0.735661 -0.676871 -0.025478
vn 0.735661 -0.676871 -0.025478
vn 0.712125 -0.689856 -0.130293
vn -0.412330 -0.690245 0.594597
vn -0.412330 -0.690246 0.594597
vn -0.412330 -0.690245 0.594597
vn -0.412330 -0.690246 0.594597
vn -0.706543 -0.691912 0.148510
vn -0.735869 -0.676823 0.020190
vn -0.735869 -0.676823 0.020190
vn -0.711272 -0.690570 0.131168
vn -0.652639 0.693696 0.304711
vn -0.652639 0.693696 0.304711
vn -0.652638 -0.693696 0.304712
vn -0.652638 -0.693696 0.304712
vn 0.655105 -0.693577 -0.299647
vn 0.655105 -0.693577 -0.299647
vn 0.655105 0.693578 -0.299646
vn 0.655105 0.693578 -0.299646
s off
g polySurface29 polySurface13
usemtl initialShadingGroup
f 2/1/1 1/2/2 4/3/3 5/4/4
s 1
f 14/5/5 3/6/6 6/7/7 13/8/8
s off
f 5/4/9 4/3/10 7/9/11 8/10/12
s 2
f 16/11/13 13/8/14 6/7/15 9/12/16
s off
f 8/10/17 7/9/18 10/13/19 11/20/20
s 3
f 16/11/21 9/12/22 12/15/23 15/16/24
s off
f 11/14/25 10/18/26 1/2/27 2/1/28
s 4
f 15/17/29 12/19/30 3/6/31 14/5/32
s 1
f 1/2/33 14/5/5 13/8/8 4/3/34
s 4
f 10/18/35 15/17/29 14/5/32 1/2/36
s 3
f 7/9/37 16/11/21 15/16/24 10/13/38
s 2
f 4/3/39 13/8/14 16/11/13 7/9/40
