# This file uses centimeters as units for non-parametric coordinates.

mtllib lava.mtl
g default
v -0.576354 -10.799612 71.650210
v 0.330802 -10.498101 71.933011
v 1.237969 -10.246812 72.215832
v 2.145146 -10.147225 72.498642
v 3.052302 -10.240789 72.781442
v 3.959479 -10.493924 73.064263
v 4.866645 -10.255305 73.347063
v 5.773802 -10.176246 73.629874
v 6.680979 -10.290403 73.912684
v 7.588145 -10.556298 74.195494
v 8.495311 -10.872357 74.478294
v -0.417353 -9.272228 71.581758
v 0.489802 -8.970714 71.864559
v 1.396970 -8.719429 72.147379
v 2.304146 -8.619838 72.430179
v 3.211302 -8.713405 72.712990
v 4.118490 -8.966541 72.995810
v 5.025646 -8.727916 73.278610
v 5.932812 -8.648857 73.561411
v 6.839968 -8.763023 73.844222
v 7.747146 -9.028916 74.127042
v 8.654312 -9.344975 74.409842
v -0.133451 -7.180330 71.320759
v 0.775326 -6.879600 71.598678
v 1.684103 -6.629097 71.876618
v 2.592891 -6.530299 72.154547
v 3.501667 -6.624652 72.432466
v 4.410466 -6.878569 72.710405
v 5.319242 -6.640737 72.988324
v 6.228019 -6.562462 73.266253
v 7.136796 -6.677411 73.544183
v 8.045563 -6.944092 73.822103
v 8.954361 -7.260941 74.100041
v 0.625411 -2.393707 70.489727
v 1.538513 -2.101403 70.752795
v 2.451877 -1.859361 71.015941
v 3.364832 -1.768987 71.278975
v 4.277882 -1.871708 71.542025
v 5.190816 -2.134042 71.805041
v 6.103761 -1.904601 72.068066
v 7.016706 -1.834716 72.331091
v 7.929294 -1.958070 72.593991
v 8.842124 -2.233196 72.856982
v 9.754597 -2.558435 73.119848
v 1.367681 3.167593 68.600025
v 2.200825 3.451722 68.837923
v 3.033968 3.676171 69.075801
v 3.867276 3.765090 69.315894
v 4.700649 3.691678 69.555860
v 5.534105 3.479427 69.795647
v 6.367624 3.689537 70.035275
v 7.201196 3.760853 70.274735
v 8.034787 3.669942 70.513999
v 8.868202 3.447502 70.751954
v 9.702014 3.163470 70.991844
v 1.824847 3.416545 66.523431
v 2.707890 3.716403 66.777569
v 3.590922 3.961679 67.031687
v 4.474006 4.062195 67.285822
v 5.357028 3.981393 67.539951
v 6.240039 3.748771 67.794060
v 7.123060 3.981393 68.048179
v 8.006082 4.062195 68.302297
v 8.889104 3.961679 68.556416
v 9.772125 3.716403 68.810535
v 10.655126 3.416545 69.064655
v 2.408397 3.379159 64.346717
v 3.329589 3.690286 64.613327
v 4.250762 3.952553 64.879948
v 5.171944 4.061212 65.146558
v 6.093126 3.973345 65.413168
v 7.014298 3.723796 65.679768
v 7.935491 3.973345 65.946388
v 8.856663 4.061212 66.212998
v 9.777846 3.952553 66.479609
v 10.699028 3.690286 66.746219
v 11.620210 3.379159 67.012829
v 3.335614 3.379159 61.829264
v 4.256796 3.690286 62.095874
v 5.177979 3.952553 62.362494
v 6.099162 4.061212 62.629104
v 7.020334 3.973345 62.895715
v 7.941526 3.723796 63.162314
v 8.862698 3.973345 63.428935
v 9.783891 4.061212 63.695544
v 10.705063 3.952553 63.962155
v 11.626235 3.690286 64.228755
v 12.547428 3.379159 64.495375
v 3.923604 3.379159 60.211407
v 4.844797 3.690286 60.478016
v 5.765969 3.952553 60.744627
v 6.687162 4.061212 61.011246
v 7.608333 3.973345 61.277847
v 8.529506 3.723796 61.544468
v 9.450688 3.973345 61.811067
v 10.371871 4.061212 62.077688
v 11.293052 3.952553 62.344288
v 12.214235 3.690286 62.610908
v 13.135418 3.379159 62.877518
v 4.446066 3.379159 58.767312
v 5.367248 3.690286 59.033922
v 6.288420 3.952553 59.300533
v 7.209614 4.061212 59.567152
v 8.130786 3.973345 59.833763
v 9.051978 3.723796 60.100362
v 9.973150 3.973345 60.366983
v 10.894343 4.061212 60.633593
v 11.815515 3.952553 60.900203
v 12.736687 3.690286 61.166814
v 13.657880 3.379159 61.433423
v 4.968518 3.379159 57.323228
v 5.889710 3.690286 57.589827
v 6.810883 3.952553 57.856448
v 7.732076 4.061212 58.123058
v 8.653248 3.973345 58.389668
v 9.574440 3.723796 58.656278
v 10.495612 3.973345 58.922888
v 11.416805 4.061212 59.189498
v 12.337977 3.952553 59.456108
v 13.259160 3.690286 59.722729
v 14.180331 3.379159 59.989329
vt 0.240452 0.583571
vt 0.259167 0.575772
vt 0.287217 0.646857
vt 0.267403 0.655207
vt 0.277880 0.567972
vt 0.307032 0.638506
vt 0.318574 0.720835
vt 0.297915 0.729599
vt 0.296570 0.560071
vt 0.326848 0.630154
vt 0.339233 0.712071
vt 0.360064 0.806959
vt 0.339405 0.815723
vt 0.315263 0.552174
vt 0.346661 0.621801
vt 0.359891 0.703307
vt 0.380722 0.798194
vt 0.386533 0.862304
vt 0.365875 0.871068
vt 0.333960 0.544284
vt 0.366474 0.613448
vt 0.380550 0.694542
vt 0.401380 0.789430
vt 0.407191 0.853540
vt 0.410101 0.911704
vt 0.389443 0.920468
vt 0.352661 0.536401
vt 0.386287 0.605096
vt 0.401208 0.685778
vt 0.422039 0.780666
vt 0.427850 0.844775
vt 0.430760 0.902940
vt 0.433669 0.961104
vt 0.413011 0.969868
vt 0.371365 0.528526
vt 0.406099 0.596743
vt 0.421867 0.677013
vt 0.442697 0.771901
vt 0.448508 0.836011
vt 0.451418 0.894175
vt 0.454328 0.952339
vt 0.390071 0.520659
vt 0.425912 0.588391
vt 0.442525 0.668248
vt 0.463355 0.763137
vt 0.469166 0.827246
vt 0.472076 0.885411
vt 0.474986 0.943575
vt 0.408791 0.512853
vt 0.445726 0.580038
vt 0.463183 0.659484
vt 0.484014 0.754372
vt 0.489825 0.818482
vt 0.492735 0.876647
vt 0.495644 0.934811
vt 0.427494 0.504955
vt 0.465538 0.571686
vt 0.483841 0.650719
vt 0.504672 0.745608
vt 0.510483 0.809718
vt 0.513393 0.867882
vt 0.516303 0.926047
vt 0.504499 0.641955
vt 0.525330 0.736844
vt 0.531141 0.800953
vt 0.534051 0.859118
vt 0.536961 0.917282
vt 0.545989 0.728079
vt 0.551799 0.792189
vt 0.554709 0.850354
vt 0.557619 0.908518
vt 0.572458 0.783425
vt 0.575367 0.841589
vt 0.578278 0.899754
vt 0.596026 0.832825
vt 0.598936 0.890989
vt 0.619594 0.882225
vt 0.019250 0.119834
vt 0.039603 0.110865
vt 0.063825 0.159947
vt 0.043471 0.168915
vt 0.059957 0.101896
vt 0.084179 0.150978
vt 0.097484 0.227766
vt 0.077128 0.236730
vt 0.080310 0.092927
vt 0.104533 0.142009
vt 0.117840 0.218800
vt 0.175739 0.384032
vt 0.155454 0.393157
vt 0.100663 0.083958
vt 0.124886 0.133039
vt 0.138196 0.209833
vt 0.196032 0.374904
vt 0.121015 0.074988
vt 0.145240 0.124069
vt 0.158551 0.200866
vt 0.216315 0.365781
vt 0.141367 0.066018
vt 0.165592 0.115098
vt 0.178907 0.191899
vt 0.236601 0.356658
vt 0.161719 0.057047
vt 0.185945 0.106127
vt 0.199262 0.182930
vt 0.256885 0.347537
vt 0.182071 0.048076
vt 0.206297 0.097155
vt 0.219617 0.173962
vt 0.277169 0.338416
vt 0.202423 0.039104
vt 0.226649 0.088182
vt 0.239971 0.164992
vt 0.297453 0.329296
vt 0.222775 0.030132
vt 0.247001 0.079209
vt 0.260325 0.156022
vt 0.317729 0.320180
vt 0.280679 0.147052
vt 0.338011 0.311062
vt 0.358285 0.301948
vn -0.319573 0.075601 0.944541
vn -0.318088 0.075469 0.945053
vn -0.329194 0.127354 0.935635
vn -0.329182 0.115303 0.937200
vn -0.310874 0.074827 0.947501
vn -0.317031 0.129149 0.939581
vn -0.297421 0.073625 0.951904
vn -0.294228 0.129310 0.946947
vn -0.283877 0.072403 0.956123
vn -0.270849 0.128138 0.954055
vn -0.295210 0.073423 0.952607
vn -0.292432 0.121520 0.948534
vn -0.309589 0.074713 0.947931
vn -0.315637 0.135065 0.939218
vn -0.295802 0.073483 0.952419
vn -0.291170 0.135012 0.947096
vn -0.282641 0.072296 0.956498
vn -0.267362 0.133586 0.954291
vn -0.275599 0.071653 0.958598
vn -0.254338 0.132137 0.958046
vn -0.274068 0.071510 0.959048
vn -0.254289 0.124172 0.959124
vn -0.337045 0.200461 0.919900
vn -0.341046 0.193034 0.920014
vn -0.317698 0.202550 0.926305
vn -0.281893 0.202621 0.937806
vn -0.244949 0.201722 0.948319
vn -0.279049 0.203169 0.938538
vn -0.315555 0.214915 0.924249
vn -0.276605 0.214639 0.936707
vn -0.238405 0.213484 0.947411
vn -0.216700 0.213436 0.952621
vn -0.213504 0.210428 0.954011
vn -0.346254 0.286382 0.893361
vn -0.351150 0.270626 0.896356
vn -0.317211 0.288826 0.903303
vn -0.267432 0.289316 0.919117
vn -0.216411 0.287376 0.933050
vn -0.270144 0.278017 0.921807
vn -0.312014 0.291912 0.904121
vn -0.260103 0.293679 0.919837
vn -0.209112 0.293236 0.932890
vn -0.179895 0.291692 0.939443
vn -0.178791 0.279005 0.943499
vn -0.380227 0.573350 0.725739
vn -0.394135 0.539861 0.743779
vn -0.321998 0.583127 0.745842
vn -0.227306 0.587843 0.776384
vn -0.129146 0.582497 0.802508
vn -0.224947 0.547051 0.806309
vn -0.314901 0.578577 0.752387
vn -0.218982 0.583996 0.781662
vn -0.122448 0.578885 0.806163
vn -0.060935 0.569362 0.819826
vn -0.055399 0.540354 0.839612
vn -0.288384 0.957213 -0.024018
vn -0.312765 0.949273 -0.032527
vn -0.193726 0.981037 0.006087
vn -0.028569 0.997862 0.058782
vn 0.141232 0.983634 0.111880
vn -0.013763 0.998389 0.055053
vn -0.173929 0.984758 -0.000874
vn -0.008572 0.997713 0.067044
vn 0.152652 0.979439 0.131894
vn 0.245394 0.954565 0.169081
vn 0.271311 0.946776 0.173219
vn -0.270884 0.957947 -0.094657
vn -0.292157 0.950943 -0.101739
vn -0.179803 0.981665 -0.063289
vn -0.011549 0.999922 -0.004687
vn 0.162088 0.985176 0.056182
vn 0.002479 0.999990 -0.003700
vn -0.161136 0.984954 -0.062461
vn 0.010689 0.999936 0.003631
vn 0.177574 0.981746 0.068131
vn 0.268138 0.957812 0.103430
vn 0.289274 0.950746 0.111366
vn -0.269323 0.957981 -0.098680
vn -0.290385 0.950973 -0.106427
vn -0.177939 0.981880 -0.065191
vn -0.009155 0.999952 -0.003345
vn 0.163880 0.984651 0.060054
vn -0.002590 0.999996 -0.000974
vn -0.162253 0.984957 -0.059443
vn 0.011251 0.999928 0.004132
vn 0.179465 0.981564 0.065765
vn 0.269765 0.957839 0.098846
vn 0.290400 0.950974 0.106376
vn -0.269756 0.957946 -0.097829
vn -0.290682 0.950994 -0.105428
vn -0.178678 0.981772 -0.064797
vn -0.009939 0.999944 -0.003601
vn 0.163443 0.984770 0.059276
vn -0.000675 1.000000 -0.000253
vn -0.163015 0.984851 -0.059117
vn 0.010486 0.999938 0.003806
vn 0.179079 0.981689 0.064947
vn 0.269872 0.957909 0.097873
vn 0.290687 0.950994 0.105411
vn -0.269876 0.957932 -0.097639
vn -0.290749 0.950999 -0.105190
vn -0.178918 0.981732 -0.064731
vn -0.010216 0.999941 -0.003696
vn 0.163268 0.984812 0.059068
vn 0.000000 1.000000 -0.000000
vn -0.163266 0.984812 -0.059069
vn 0.010216 0.999941 0.003696
vn 0.178920 0.981732 0.064732
vn 0.269876 0.957932 0.097639
vn 0.290754 0.950998 0.105192
vn -0.269033 0.958200 -0.097335
vn -0.290748 0.951000 -0.105191
vn -0.176005 0.982327 -0.063678
vn -0.006215 0.999978 -0.002249
vn 0.166367 0.984225 0.060191
vn -0.009883 0.999945 -0.003575
vn -0.160162 0.985389 -0.057946
vn 0.014215 0.999886 0.005143
vn 0.181829 0.981127 0.065786
vn 0.270717 0.957663 0.097945
vn 0.290755 0.950997 0.105193
s 1
g polySurface21 polySurface13
usemtl texturedFacets6
f 1/78/1 2/79/2 13/80/3 12/81/4
f 2/79/2 3/82/5 14/83/6 13/80/3
f 3/82/5 4/86/7 15/87/8 14/83/6
f 4/86/7 5/91/9 16/92/10 15/87/8
f 5/91/9 6/95/11 17/96/12 16/92/10
f 6/95/11 7/99/13 18/100/14 17/96/12
f 7/99/13 8/103/15 19/104/16 18/100/14
f 8/103/15 9/107/17 20/108/18 19/104/16
f 9/107/17 10/111/19 21/112/20 20/108/18
f 10/111/19 11/115/21 22/116/22 21/112/20
f 12/81/4 13/80/3 24/84/23 23/85/24
f 13/80/3 14/83/6 25/88/25 24/84/23
f 14/83/6 15/87/8 26/93/26 25/88/25
f 15/87/8 16/92/10 27/97/27 26/93/26
f 16/92/10 17/96/12 28/101/28 27/97/27
f 17/96/12 18/100/14 29/105/29 28/101/28
f 18/100/14 19/104/16 30/109/30 29/105/29
f 19/104/16 20/108/18 31/113/31 30/109/30
f 20/108/18 21/112/20 32/117/32 31/113/31
f 21/112/20 22/116/22 33/119/33 32/117/32
f 23/85/24 24/84/23 35/89/34 34/90/35
f 24/84/23 25/88/25 36/94/36 35/89/34
f 25/88/25 26/93/26 37/98/37 36/94/36
f 26/93/26 27/97/27 38/102/38 37/98/37
f 27/97/27 28/101/28 39/106/39 38/102/38
f 28/101/28 29/105/29 40/110/40 39/106/39
f 29/105/29 30/109/30 41/114/41 40/110/40
f 30/109/30 31/113/31 42/118/42 41/114/41
f 31/113/31 32/117/32 43/120/43 42/118/42
f 32/117/32 33/119/33 44/121/44 43/120/43
f 34/90/35 35/89/34 46/2/45 45/1/46
f 35/89/34 36/94/36 47/5/47 46/2/45
f 36/94/36 37/98/37 48/9/48 47/5/47
f 37/98/37 38/102/38 49/14/49 48/9/48
f 38/102/38 39/106/39 50/20/50 49/14/49
f 39/106/39 40/110/40 51/27/51 50/20/50
f 40/110/40 41/114/41 52/35/52 51/27/51
f 41/114/41 42/118/42 53/42/53 52/35/52
f 42/118/42 43/120/43 54/49/54 53/42/53
f 43/120/43 44/121/44 55/56/55 54/49/54
f 45/1/46 46/2/45 57/3/56 56/4/57
f 46/2/45 47/5/47 58/6/58 57/3/56
f 47/5/47 48/9/48 59/10/59 58/6/58
f 48/9/48 49/14/49 60/15/60 59/10/59
f 49/14/49 50/20/50 61/21/61 60/15/60
f 50/20/50 51/27/51 62/28/62 61/21/61
f 51/27/51 52/35/52 63/36/63 62/28/62
f 52/35/52 53/42/53 64/43/64 63/36/63
f 53/42/53 54/49/54 65/50/65 64/43/64
f 54/49/54 55/56/55 66/57/66 65/50/65
f 56/4/57 57/3/56 68/7/67 67/8/68
f 57/3/56 58/6/58 69/11/69 68/7/67
f 58/6/58 59/10/59 70/16/70 69/11/69
f 59/10/59 60/15/60 71/22/71 70/16/70
f 60/15/60 61/21/61 72/29/72 71/22/71
f 61/21/61 62/28/62 73/37/73 72/29/72
f 62/28/62 63/36/63 74/44/74 73/37/73
f 63/36/63 64/43/64 75/51/75 74/44/74
f 64/43/64 65/50/65 76/58/76 75/51/75
f 65/50/65 66/57/66 77/63/77 76/58/76
f 67/8/68 68/7/67 79/12/78 78/13/79
f 68/7/67 69/11/69 80/17/80 79/12/78
f 69/11/69 70/16/70 81/23/81 80/17/80
f 70/16/70 71/22/71 82/30/82 81/23/81
f 71/22/71 72/29/72 83/38/83 82/30/82
f 72/29/72 73/37/73 84/45/84 83/38/83
f 73/37/73 74/44/74 85/52/85 84/45/84
f 74/44/74 75/51/75 86/59/86 85/52/85
f 75/51/75 76/58/76 87/64/87 86/59/86
f 76/58/76 77/63/77 88/68/88 87/64/87
f 78/13/79 79/12/78 90/18/89 89/19/90
f 79/12/78 80/17/80 91/24/91 90/18/89
f 80/17/80 81/23/81 92/31/92 91/24/91
f 81/23/81 82/30/82 93/39/93 92/31/92
f 82/30/82 83/38/83 94/46/94 93/39/93
f 83/38/83 84/45/84 95/53/95 94/46/94
f 84/45/84 85/52/85 96/60/96 95/53/95
f 85/52/85 86/59/86 97/65/97 96/60/96
f 86/59/86 87/64/87 98/69/98 97/65/97
f 87/64/87 88/68/88 99/72/99 98/69/98
f 89/19/90 90/18/89 101/25/100 100/26/101
f 90/18/89 91/24/91 102/32/102 101/25/100
f 91/24/91 92/31/92 103/40/103 102/32/102
f 92/31/92 93/39/93 104/47/104 103/40/103
f 93/39/93 94/46/94 105/54/105 104/47/104
f 94/46/94 95/53/95 106/61/106 105/54/105
f 95/53/95 96/60/96 107/66/107 106/61/106
f 96/60/96 97/65/97 108/70/108 107/66/107
f 97/65/97 98/69/98 109/73/109 108/70/108
f 98/69/98 99/72/99 110/75/110 109/73/109
f 100/26/101 101/25/100 112/33/111 111/34/112
f 101/25/100 102/32/102 113/41/113 112/33/111
f 102/32/102 103/40/103 114/48/114 113/41/113
f 103/40/103 104/47/104 115/55/115 114/48/114
f 104/47/104 105/54/105 116/62/116 115/55/115
f 105/54/105 106/61/106 117/67/117 116/62/116
f 106/61/106 107/66/107 118/71/118 117/67/117
f 107/66/107 108/70/108 119/74/119 118/71/118
f 108/70/108 109/73/109 120/76/120 119/74/119
f 109/73/109 110/75/110 121/77/121 120/76/120
