# This file uses centimeters as units for non-parametric coordinates.

mtllib rock_hell.mtl
g default
v 1.618279 -3.610891 -0.831781
v 0.988833 -3.729292 -2.474169
v 0.232289 -3.854215 -2.736079
v -0.652155 -3.719957 -2.898442
v -1.486633 -3.407445 -1.771679
v -1.895902 -3.417394 -1.124280
v -1.793069 -3.401818 -0.390761
v -1.124814 -3.529209 0.659414
v -0.299866 -3.328714 1.338826
v 0.473546 -3.307861 1.557389
v 0.988544 -3.307861 1.421513
v 1.528779 -3.328714 1.123461
v 1.918406 -3.160224 0.442578
v 1.826462 -2.447927 -0.614493
v 0.966118 -3.215980 -2.691545
v 0.166489 -3.508310 -2.990133
v -0.770830 -3.236074 -3.130741
v -1.621000 -2.742910 -1.720030
v -2.320370 -2.517133 -1.075207
v -2.313703 -2.414469 -0.183646
v -1.595242 -2.726089 0.866273
v -0.344116 -2.750323 1.564368
v 0.515388 -2.706296 1.832711
v 1.051812 -2.703555 1.664079
v 1.690000 -2.691749 1.308126
v 2.171096 -2.328751 0.607146
v 1.951222 -1.245170 -0.557318
v 0.843028 -2.711245 -2.576539
v 0.128752 -3.151779 -2.996845
v -0.749336 -2.790121 -3.021027
v -1.659198 -2.198437 -1.752911
v -2.348341 -1.750831 -1.088271
v -2.330157 -1.500532 -0.015184
v -1.726202 -1.622015 0.900609
v -0.332722 -1.905780 1.636742
v 0.531901 -1.805474 1.966977
v 1.075620 -1.801996 1.775390
v 1.730776 -1.783629 1.370981
v 2.289098 -1.419047 0.580212
v 1.977881 -0.689054 -0.695458
v 0.809546 -2.271433 -2.357902
v 0.143057 -2.760827 -2.776762
v -0.718570 -2.359371 -2.740138
v -1.667394 -1.738430 -1.835988
v -2.374193 -1.076932 -1.083797
v -2.379773 -0.559986 0.038298
v -1.806850 -0.629229 0.888713
v -0.323653 -0.902392 1.672692
v 0.540405 -0.810161 2.036120
v 1.087637 -0.808384 1.832711
v 1.714833 -0.788281 1.403349
v 2.335965 -0.516113 0.503976
v 1.955604 -0.254414 -0.870614
v 0.709601 -1.805583 -2.369624
v 0.146319 -2.197740 -2.628032
v -0.718570 -1.796284 -2.646269
v -1.662448 -1.161761 -1.851198
v -2.399242 -0.568222 -1.091403
v -2.347060 0.122775 0.078880
v -1.823161 0.365668 0.858102
v -0.445258 0.193867 1.573999
v 0.479125 0.165158 1.904506
v 1.026357 0.165158 1.701098
v 1.665182 0.184926 1.254802
v 2.264256 0.318288 0.260225
v 1.887714 0.441325 -1.050135
v 0.666826 -0.106339 -2.316525
v 0.137815 -0.362726 -2.558612
v -0.662271 0.011956 -2.528489
v -1.609643 -0.405533 -1.869213
v -2.325215 0.065972 -1.077327
v -2.232114 0.820281 0.112677
v -1.817648 1.375115 0.736295
v -0.802747 1.503391 1.231234
v 0.270724 1.395065 1.438465
v 0.832428 1.397273 1.246878
v 1.574295 1.381533 0.762652
v 2.064858 1.360802 -0.146063
v 1.335344 1.985895 -0.957007
v 0.660200 0.710639 -1.576831
v -0.098019 -0.078021 -1.801371
v -0.935503 0.536994 -1.906387
v -1.516253 1.300149 -1.883007
v -2.236129 1.411766 -1.023030
v -2.135922 1.814439 -0.136262
v -1.571656 2.483690 0.559570
v -0.793010 2.486943 0.928993
v 0.029584 2.469589 0.996804
v 0.611556 2.469589 0.798597
v 1.269331 2.469589 0.337039
v 1.632265 2.358124 -0.283396
v 0.787224 2.753862 -0.917911
v 0.446794 2.412367 -0.957022
v -0.015325 2.258144 -1.244003
v -0.420701 2.580886 -1.214501
v -0.707693 2.851444 -1.206879
v -1.087345 2.964814 -0.503562
v -1.181487 3.212815 0.015135
v -0.877904 3.234525 0.473811
v -0.407969 3.132236 0.737657
v 0.086623 3.044171 0.754254
v 0.463473 3.030826 0.549892
v 0.828987 3.032296 0.157907
v 1.008198 2.942642 -0.348742
v 0.503176 3.438484 -0.809538
v 0.322813 3.444279 -1.073704
v 0.068497 3.465807 -1.196221
v -0.201510 3.610265 -1.149260
v -0.425354 3.720297 -0.898855
v -0.555510 3.877369 -0.490264
v -0.570456 3.985298 -0.060258
v -0.446581 3.866211 0.271438
v -0.204092 3.630445 0.465433
v 0.068497 3.513907 0.455262
v 0.322812 3.472274 0.288867
v 0.503175 3.465795 -0.008689
v 0.568267 3.448827 -0.415914
v 0.259117 3.921423 -0.558362
v 0.166237 4.020165 -0.671701
v 0.035274 4.087117 -0.727351
v -0.103770 4.121424 -0.698848
v -0.219042 4.191391 -0.583923
v -0.284133 4.261139 -0.384302
v -0.284133 4.252107 -0.166978
v -0.219042 4.158147 0.024157
v -0.103771 3.999822 0.130503
v 0.035273 3.904586 0.113555
v 0.166237 3.851751 0.013232
v 0.259117 3.832003 -0.155788
v 0.292637 3.846408 -0.363025
v 0.000000 4.163057 -0.264788
vt 0.307586 0.320669
vt 0.431888 0.267104
vt 0.495426 0.243994
vt 0.573056 0.252449
vt 0.683600 0.293012
vt 0.746782 0.314947
vt 0.807187 0.332916
vt 0.900295 0.360153
vt 0.967244 0.396509
vt 0.091272 0.480150
vt 0.124550 0.456661
vt 0.164989 0.428720
vt 0.225411 0.398908
vt 0.318124 0.398177
vt 0.450907 0.294745
vt 0.508561 0.269423
vt 0.572728 0.284876
vt 0.683048 0.338202
vt 0.740479 0.377007
vt 0.794442 0.405481
vt 0.876781 0.415224
vt 0.060719 0.543306
vt 0.112463 0.517908
vt 0.143040 0.494873
vt 0.185085 0.465758
vt 0.244999 0.452123
vt 0.343769 0.467599
vt 0.459161 0.326981
vt 0.512668 0.291898
vt 0.573133 0.312604
vt 0.672972 0.372034
vt 0.727520 0.421775
vt 0.788968 0.464693
vt 0.856430 0.485749
vt 0.089554 0.599059
vt 0.141545 0.571036
vt 0.170846 0.546882
vt 0.211300 0.516332
vt 0.273278 0.499988
vt 0.363494 0.495625
vt 0.459340 0.357939
vt 0.510914 0.320052
vt 0.576846 0.343345
vt 0.662774 0.399157
vt 0.718033 0.461198
vt 0.773219 0.521632
vt 0.832537 0.548003
vt 0.133228 0.665385
vt 0.179832 0.626332
vt 0.205834 0.601078
vt 0.240924 0.570745
vt 0.302130 0.543978
vt 0.382433 0.515863
vt 0.472339 0.384603
vt 0.512799 0.355518
vt 0.576886 0.378147
vt 0.654786 0.433552
vt 0.710093 0.490533
vt 0.761122 0.562617
vt 0.802484 0.608881
vt 0.193752 0.734331
vt 0.222442 0.678527
vt 0.245524 0.651039
vt 0.278662 0.618339
vt 0.335766 0.580474
vt 0.409239 0.550618
vt 0.492837 0.483772
vt 0.524431 0.463105
vt 0.572639 0.481647
vt 0.641654 0.478707
vt 0.698955 0.526218
vt 0.746246 0.604071
vt 0.759517 0.662532
vt 0.277414 0.810280
vt 0.291236 0.740810
vt 0.310341 0.709652
vt 0.340568 0.665912
vt 0.383579 0.623402
vt 0.453628 0.636087
vt 0.490443 0.550347
vt 0.534957 0.507946
vt 0.589387 0.529606
vt 0.619380 0.575539
vt 0.675581 0.601629
vt 0.702209 0.649575
vt 0.703366 0.718081
vt 0.352929 0.835713
vt 0.363884 0.785819
vt 0.378005 0.751542
vt 0.400398 0.708228
vt 0.422213 0.671596
vt 0.484446 0.681657
vt 0.504064 0.657935
vt 0.535362 0.643397
vt 0.560813 0.661239
vt 0.580152 0.677326
vt 0.623006 0.705931
vt 0.642403 0.737636
vt 0.654940 0.770111
vt 0.410967 0.823706
vt 0.409584 0.792270
vt 0.418614 0.767185
vt 0.434880 0.738281
vt 0.454341 0.709111
vt 0.501380 0.722093
vt 0.517846 0.713748
vt 0.533743 0.710920
vt 0.549216 0.718027
vt 0.564332 0.729828
vt 0.577986 0.751329
vt 0.587911 0.774564
vt 0.599677 0.791971
vt 0.459294 0.813704
vt 0.451654 0.795749
vt 0.455179 0.776919
vt 0.466339 0.757831
vt 0.482527 0.738083
vt 0.515448 0.754215
vt 0.525660 0.752816
vt 0.534676 0.752710
vt 0.542742 0.754715
vt 0.549555 0.760901
vt 0.554893 0.770313
vt 0.559992 0.779657
vt 0.565819 0.790621
vt 0.499794 0.801540
vt 0.492467 0.793127
vt 0.491880 0.782309
vt 0.496381 0.771006
vt 0.504558 0.760668
vt 0.531943 0.781805
vt 0.569539 0.803548
vt 0.612928 0.810792
vt 0.662003 0.803978
vt 0.721632 0.766970
vt 0.800565 0.722604
vt 0.889405 0.649832
vt 0.934328 0.575427
vt 0.955806 0.501513
vt 0.965362 0.439545
vt 0.042989 0.505167
vn 0.942645 -0.126029 -0.309091
vn 0.885956 -0.155375 -0.436967
vn 0.840614 -0.052885 -0.539047
vn 0.937321 -0.068756 -0.341617
vn 0.267018 -0.450891 -0.851704
vn 0.227001 -0.214497 -0.949980
vn -0.604813 -0.390271 -0.694182
vn -0.628185 -0.165182 -0.760328
vn -0.815162 -0.251106 -0.521974
vn -0.796467 -0.129598 -0.590631
vn -0.887985 -0.374401 -0.267033
vn -0.940409 -0.227601 -0.252642
vn -0.821765 -0.496913 0.278891
vn -0.911148 -0.275481 0.306464
vn -0.644512 -0.482497 0.593128
vn -0.680778 -0.286039 0.674332
vn -0.410370 -0.409855 0.814626
vn -0.419880 -0.213528 0.882104
vn -0.062725 -0.398969 0.914816
vn -0.063811 -0.227278 0.971737
vn 0.370072 -0.380340 0.847578
vn 0.405042 -0.222111 0.886909
vn 0.712727 -0.361729 0.600977
vn 0.715421 -0.215911 0.664496
vn 0.970866 -0.237962 -0.028162
vn 0.984906 -0.162515 0.059580
vn 0.798124 0.114964 -0.591423
vn 0.918674 -0.027022 -0.394090
vn 0.233163 0.289173 -0.928447
vn -0.513404 0.201408 -0.834177
vn -0.746232 0.018758 -0.665422
vn -0.953043 -0.052794 -0.298199
vn -0.936120 -0.074964 0.343599
vn -0.646294 -0.069755 0.759894
vn -0.429409 -0.061227 0.901032
vn -0.089717 -0.085643 0.992278
vn 0.443520 -0.080378 0.892653
vn 0.710306 -0.055644 0.701690
vn 0.990421 -0.074168 0.116467
vn 0.748005 0.077631 -0.659137
vn 0.898476 -0.016664 -0.438706
vn 0.210516 0.373862 -0.903277
vn -0.376340 0.234605 -0.896286
vn -0.701261 0.033024 -0.712140
vn -0.956763 -0.037310 -0.288467
vn -0.945744 -0.028660 0.323646
vn -0.618793 -0.013090 0.785445
vn -0.426814 0.003372 0.904333
vn -0.096445 0.028065 0.994943
vn 0.466034 0.049249 0.883395
vn 0.710373 0.069324 0.700403
vn 0.974527 0.040519 0.220579
vn 0.648855 0.018996 -0.760675
vn 0.850252 0.006550 -0.526335
vn 0.189431 0.097777 -0.977014
vn -0.308072 0.072783 -0.948575
vn -0.654957 0.041530 -0.754524
vn -0.928962 0.051427 -0.366584
vn -0.956236 0.069084 0.284324
vn -0.594037 0.063868 0.801898
vn -0.377464 0.117060 0.918595
vn -0.059985 0.216873 0.974355
vn 0.451753 0.276575 0.848190
vn 0.693264 0.263047 0.670963
vn 0.969263 0.168885 0.178905
vn 0.509907 0.228436 -0.829345
vn 0.759006 0.162259 -0.630541
vn 0.155176 0.272287 -0.949621
vn -0.147593 0.316209 -0.937138
vn -0.634570 0.082035 -0.768500
vn -0.903542 0.085712 -0.419839
vn -0.957831 0.127257 0.257616
vn -0.648814 0.179533 0.739465
vn -0.335584 0.215672 0.916989
vn -0.003851 0.332280 0.943173
vn 0.430363 0.396658 0.810833
vn 0.699988 0.371384 0.609993
vn 0.953976 0.298079 -0.032832
vn 0.268551 0.387869 -0.881725
vn 0.547493 0.385264 -0.742848
vn 0.175864 0.555495 -0.812710
vn 0.106525 0.329380 -0.938169
vn -0.474356 0.343446 -0.810574
vn -0.854677 0.323409 -0.406119
vn -0.925938 0.374428 0.049428
vn -0.685832 0.413039 0.599194
vn -0.290423 0.333924 0.896744
vn 0.052680 0.367999 0.928333
vn 0.437863 0.442347 0.782691
vn 0.683113 0.493898 0.537979
vn 0.870507 0.475200 -0.128073
vn 0.234050 0.233496 -0.943769
vn 0.444076 0.397589 -0.802944
vn 0.217649 0.222505 -0.950327
vn 0.173924 0.224532 -0.958820
vn -0.401693 0.510205 -0.760482
vn -0.711204 0.574108 -0.405696
vn -0.794111 0.607368 -0.022160
vn -0.576356 0.557130 0.597846
vn -0.172520 0.434509 0.883990
vn 0.193931 0.419437 0.886828
vn 0.503540 0.508664 0.698362
vn 0.665153 0.630381 0.400238
vn 0.746438 0.635880 -0.196180
vn 0.530773 0.166557 -0.830987
vn 0.738715 0.410268 -0.534772
vn 0.247626 0.149052 -0.957322
vn -0.139769 0.289268 -0.946989
vn -0.648136 0.460171 -0.606764
vn -0.775270 0.511877 -0.370051
vn -0.772715 0.631039 0.068565
vn -0.461669 0.615416 0.638846
vn -0.045064 0.541348 0.839590
vn 0.338859 0.542305 0.768817
vn 0.590106 0.577174 0.564486
vn 0.733127 0.619145 0.281396
vn 0.815120 0.570007 -0.103296
vn 0.615826 0.617450 -0.489402
vn 0.802428 0.565469 -0.190668
vn 0.302314 0.670951 -0.677075
vn -0.117858 0.721839 -0.681952
vn -0.475348 0.716870 -0.510042
vn -0.600818 0.754591 -0.263836
vn -0.540363 0.830454 0.135478
vn -0.127227 0.789273 0.600718
vn 0.250457 0.657175 0.710909
vn 0.481497 0.627610 0.611773
vn 0.643722 0.617355 0.452211
vn 0.765280 0.598253 0.237572
vn 0.820113 0.570676 0.041750
vn 0.561845 0.813563 0.149816
s 1
g pSphere19
usemtl initialShadingGroup
f 1/1/1 2/2/2 15/15/3 14/14/4
f 2/2/2 3/3/5 16/16/6 15/15/3
f 3/3/5 4/4/7 17/17/8 16/16/6
f 4/4/7 5/5/9 18/18/10 17/17/8
f 5/5/9 6/6/11 19/19/12 18/18/10
f 6/6/11 7/7/13 20/20/14 19/19/12
f 7/7/13 8/8/15 21/21/16 20/20/14
f 8/8/15 9/9/17 22/140/18 21/21/16
f 9/141/17 10/10/19 23/23/20 22/22/18
f 10/10/19 11/11/21 24/24/22 23/23/20
f 11/11/21 12/12/23 25/25/24 24/24/22
f 12/12/23 13/13/25 26/26/26 25/25/24
f 13/13/25 1/1/1 14/14/4 26/26/26
f 14/14/4 15/15/3 28/28/27 27/27/28
f 15/15/3 16/16/6 29/29/29 28/28/27
f 16/16/6 17/17/8 30/30/30 29/29/29
f 17/17/8 18/18/10 31/31/31 30/30/30
f 18/18/10 19/19/12 32/32/32 31/31/31
f 19/19/12 20/20/14 33/33/33 32/32/32
f 20/20/14 21/21/16 34/34/34 33/33/33
f 21/21/16 22/140/18 35/139/35 34/34/34
f 22/22/18 23/23/20 36/36/36 35/35/35
f 23/23/20 24/24/22 37/37/37 36/36/36
f 24/24/22 25/25/24 38/38/38 37/37/37
f 25/25/24 26/26/26 39/39/39 38/38/38
f 26/26/26 14/14/4 27/27/28 39/39/39
f 27/27/28 28/28/27 41/41/40 40/40/41
f 28/28/27 29/29/29 42/42/42 41/41/40
f 29/29/29 30/30/30 43/43/43 42/42/42
f 30/30/30 31/31/31 44/44/44 43/43/43
f 31/31/31 32/32/32 45/45/45 44/44/44
f 32/32/32 33/33/33 46/46/46 45/45/45
f 33/33/33 34/34/34 47/47/47 46/46/46
f 34/34/34 35/139/35 48/138/48 47/47/47
f 35/35/35 36/36/36 49/49/49 48/48/48
f 36/36/36 37/37/37 50/50/50 49/49/49
f 37/37/37 38/38/38 51/51/51 50/50/50
f 38/38/38 39/39/39 52/52/52 51/51/51
f 39/39/39 27/27/28 40/40/41 52/52/52
f 40/40/41 41/41/40 54/54/53 53/53/54
f 41/41/40 42/42/42 55/55/55 54/54/53
f 42/42/42 43/43/43 56/56/56 55/55/55
f 43/43/43 44/44/44 57/57/57 56/56/56
f 44/44/44 45/45/45 58/58/58 57/57/57
f 45/45/45 46/46/46 59/59/59 58/58/58
f 46/46/46 47/47/47 60/60/60 59/59/59
f 47/47/47 48/138/48 61/137/61 60/60/60
f 48/48/48 49/49/49 62/62/62 61/61/61
f 49/49/49 50/50/50 63/63/63 62/62/62
f 50/50/50 51/51/51 64/64/64 63/63/63
f 51/51/51 52/52/52 65/65/65 64/64/64
f 52/52/52 40/40/41 53/53/54 65/65/65
f 53/53/54 54/54/53 67/67/66 66/66/67
f 54/54/53 55/55/55 68/68/68 67/67/66
f 55/55/55 56/56/56 69/69/69 68/68/68
f 56/56/56 57/57/57 70/70/70 69/69/69
f 57/57/57 58/58/58 71/71/71 70/70/70
f 58/58/58 59/59/59 72/72/72 71/71/71
f 59/59/59 60/60/60 73/73/73 72/72/72
f 60/60/60 61/137/61 74/136/74 73/73/73
f 61/61/61 62/62/62 75/75/75 74/74/74
f 62/62/62 63/63/63 76/76/76 75/75/75
f 63/63/63 64/64/64 77/77/77 76/76/76
f 64/64/64 65/65/65 78/78/78 77/77/77
f 65/65/65 53/53/54 66/66/67 78/78/78
f 66/66/67 67/67/66 80/80/79 79/79/80
f 67/67/66 68/68/68 81/81/81 80/80/79
f 68/68/68 69/69/69 82/82/82 81/81/81
f 69/69/69 70/70/70 83/83/83 82/82/82
f 70/70/70 71/71/71 84/84/84 83/83/83
f 71/71/71 72/72/72 85/85/85 84/84/84
f 72/72/72 73/73/73 86/86/86 85/85/85
f 73/73/73 74/136/74 87/135/87 86/86/86
f 74/74/74 75/75/75 88/88/88 87/87/87
f 75/75/75 76/76/76 89/89/89 88/88/88
f 76/76/76 77/77/77 90/90/90 89/89/89
f 77/77/77 78/78/78 91/91/91 90/90/90
f 78/78/78 66/66/67 79/79/80 91/91/91
f 79/79/80 80/80/79 93/93/92 92/92/93
f 80/80/79 81/81/81 94/94/94 93/93/92
f 81/81/81 82/82/82 95/95/95 94/94/94
f 82/82/82 83/83/83 96/96/96 95/95/95
f 83/83/83 84/84/84 97/97/97 96/96/96
f 84/84/84 85/85/85 98/98/98 97/97/97
f 85/85/85 86/86/86 99/99/99 98/98/98
f 86/86/86 87/135/87 100/134/100 99/99/99
f 87/87/87 88/88/88 101/101/101 100/100/100
f 88/88/88 89/89/89 102/102/102 101/101/101
f 89/89/89 90/90/90 103/103/103 102/102/102
f 90/90/90 91/91/91 104/104/104 103/103/103
f 91/91/91 79/79/80 92/92/93 104/104/104
f 92/92/93 93/93/92 106/106/105 105/105/106
f 93/93/92 94/94/94 107/107/107 106/106/105
f 94/94/94 95/95/95 108/108/108 107/107/107
f 95/95/95 96/96/96 109/109/109 108/108/108
f 96/96/96 97/97/97 110/110/110 109/109/109
f 97/97/97 98/98/98 111/111/111 110/110/110
f 98/98/98 99/99/99 112/112/112 111/111/111
f 99/99/99 100/134/100 113/133/113 112/112/112
f 100/100/100 101/101/101 114/114/114 113/113/113
f 101/101/101 102/102/102 115/115/115 114/114/114
f 102/102/102 103/103/103 116/116/116 115/115/115
f 103/103/103 104/104/104 117/117/117 116/116/116
f 104/104/104 92/92/93 105/105/106 117/117/117
f 105/105/106 106/106/105 119/119/118 118/118/119
f 106/106/105 107/107/107 120/120/120 119/119/118
f 107/107/107 108/108/108 121/121/121 120/120/120
f 108/108/108 109/109/109 122/122/122 121/121/121
f 109/109/109 110/110/110 123/123/123 122/122/122
f 110/110/110 111/111/111 124/124/124 123/123/123
f 111/111/111 112/112/112 125/125/125 124/124/124
f 112/112/112 113/133/113 126/132/126 125/125/125
f 113/113/113 114/114/114 127/127/127 126/126/126
f 114/114/114 115/115/115 128/128/128 127/127/127
f 115/115/115 116/116/116 129/129/129 128/128/128
f 116/116/116 117/117/117 130/130/130 129/129/129
f 117/117/117 105/105/106 118/118/119 130/130/130
f 118/118/119 119/119/118 131/131/131
f 119/119/118 120/120/120 131/131/131
f 120/120/120 121/121/121 131/131/131
f 121/121/121 122/122/122 131/131/131
f 122/122/122 123/123/123 131/131/131
f 123/123/123 124/124/124 131/131/131
f 124/124/124 125/125/125 131/131/131
f 125/125/125 126/132/126 131/131/131
f 126/126/126 127/127/127 131/131/131
f 127/127/127 128/128/128 131/131/131
f 128/128/128 129/129/129 131/131/131
f 129/129/129 130/130/130 131/131/131
f 130/130/130 118/118/119 131/131/131
