# This file uses centimeters as units for non-parametric coordinates.

mtllib wall.mtl
g default
v -7.647903 0.278939 2.910334
v -7.261246 0.278939 2.985193
v -7.647903 4.787048 2.910334
v -7.261246 4.787048 2.985193
v -6.841918 4.787048 -1.252686
v -6.455261 4.787048 -1.177827
v -6.841918 0.278939 -1.252686
v -6.455261 0.278939 -1.177827
vt 0.081630 0.257279
vt 0.522067 0.010335
vt 0.414233 0.336056
vt 0.443290 0.342938
vt 0.340136 0.648902
vt 0.369193 0.655784
vt 0.261359 0.981505
vt 0.290416 0.988387
vt 0.701796 0.734561
vt 0.007533 0.570125
vt 0.775893 0.421715
vt 0.493010 0.003453
vn -0.190076 0.000000 0.981769
vn -0.190076 0.000000 0.981769
vn -0.190076 0.000000 0.981769
vn -0.190076 0.000000 0.981769
vn 0.000000 1.000000 0.000000
vn 0.000000 1.000000 0.000000
vn 0.000000 1.000000 0.000000
vn 0.000000 1.000000 0.000000
vn 0.190076 0.000000 -0.981769
vn 0.190076 0.000000 -0.981769
vn 0.190076 0.000000 -0.981769
vn 0.190076 0.000000 -0.981769
vn 0.981769 0.000000 0.190076
vn 0.981769 0.000000 0.190076
vn 0.981769 0.000000 0.190076
vn 0.981769 0.000000 0.190076
vn -0.981769 0.000000 -0.190076
vn -0.981769 0.000000 -0.190076
vn -0.981769 0.000000 -0.190076
vn -0.981769 0.000000 -0.190076
s off
g pCube5
usemtl initialShadingGroup
f 1/12/1 2/2/2 4/4/3 3/3/4
f 3/3/5 4/4/6 6/6/7 5/5/8
f 5/5/9 6/6/10 8/8/11 7/7/12
f 2/11/13 8/9/14 6/6/15 4/4/16
f 7/10/17 1/1/18 3/3/19 5/5/20
